<svg xmlns="http://www.w3.org/2000/svg" width="20" height="26" viewBox="0 0 20 26"><g><g><path fill="#050c42" d="M12 2c0 .086-.02.168-.031.25C15.489 3.172 18 6.523 18 10.281V19c0 .566.434 1 1 1h1v2h-7.188c.114.316.188.648.188 1 0 1.645-1.355 3-3 3s-3-1.355-3-3c0-.352.074-.684.188-1H0v-2h1c.566 0 1-.434 1-1v-9c0-3.727 2.574-6.867 6.031-7.75C8.02 2.168 8 2.086 8 2a1.999 1.999 0 1 1 4 0zm-8 8v9c0 .352-.074.684-.188 1h12.376A2.95 2.95 0 0 1 16 19v-8.719c0-3.32-2.547-6.183-5.813-6.281H10c-.148 0-.293-.012-.438 0A6.005 6.005 0 0 0 4 10zm5 13c0 .563.438 1 1 1 .563 0 1-.438 1-1 0-.563-.438-1-1-1-.563 0-1 .438-1 1z"/></g></g></svg>