<svg width="61" height="40" viewBox="0 0 61 40" fill="none" xmlns="http://www.w3.org/2000/svg">
<circle cx="20" cy="20" r="20" fill="url(#paint0_linear)"/>
<circle cx="44.5" cy="18.5" r="16.5" fill="url(#paint1_linear)"/>
<path d="M9.21 18H9.47C10.52 18 11.18 17.8 11.6 16.92C11.84 16.33 11.99 15.44 11.99 14.12V12.19H14.31V18H15.81V10.86H10.58V14.02C10.58 15.53 10.4 16.19 10.11 16.39C9.97 16.49 9.75 16.54 9.46 16.54H9.21V18ZM18.297 10.86H16.737L19.377 15.86L18.357 18H19.847L23.267 10.86H21.757L20.247 14.06H19.967L18.297 10.86ZM23.9734 13.13C23.9734 13.69 23.9734 13.96 24.1634 14.41C24.2634 14.64 24.4034 14.81 24.5734 14.94C24.9334 15.19 25.6234 15.41 26.5934 15.41C27.1634 15.41 27.6934 15.35 28.1834 15.24V18H29.6734V10.86H28.1834V13.92C27.7734 14.03 27.3634 14.08 26.9534 14.08C26.0634 14.08 25.7034 13.87 25.5634 13.56C25.4534 13.31 25.4634 13.21 25.4634 12.9V10.86H23.9734V13.13ZM32.7741 16.67V10.86H31.3241V18H40.1941V10.86H38.7441V16.67H36.4841V10.86H35.0341V16.67H32.7741ZM48.0517 18L45.7717 10.86H43.4617L41.1917 18H42.6617L43.2417 16.07H45.9617L46.5417 18H48.0517ZM44.8117 12.29L45.5617 14.77H43.6217L44.3717 12.29H44.8117ZM51.2485 10.86C49.6785 10.86 48.7385 11.69 48.7385 13.08C48.7385 13.98 49.0885 14.62 49.7985 14.99L48.7285 18H50.2285L51.1885 15.31H53.1185V18H54.6085V10.86H51.2485ZM51.4585 14.04C50.6585 14.04 50.2585 13.73 50.2585 13.1C50.2585 12.43 50.6385 12.17 51.6085 12.17H53.1185V14.04H51.4585ZM16.87 31.75V28.67H15.85V22.86H14.36V28.67H11.32V22.86H9.83V30H15.42V31.75H16.87ZM19.4255 26.99H22.3755V25.69H19.4255V24.19H23.2155V22.86H17.9355V30H23.3255V28.67H19.4255V26.99ZM29.2456 25.64H26.0856V22.86H24.5956V30H26.0856V27.01H29.2456V30H30.7356V22.86H29.2456V25.64ZM38.5986 30L36.3186 22.86H34.0086L31.7386 30H33.2086L33.7886 28.07H36.5086L37.0886 30H38.5986ZM35.3586 24.29L36.1086 26.77H34.1686L34.9186 24.29H35.3586Z" fill="white"/>
<defs>
<linearGradient id="paint0_linear" x1="0.756115" y1="3.6565" x2="40.8311" y2="4.59734" gradientUnits="userSpaceOnUse">
<stop stop-color="#FC5555"/>
<stop offset="1" stop-color="#C800CC"/>
</linearGradient>
<linearGradient id="paint1_linear" x1="28.6238" y1="5.01661" x2="61.6857" y2="5.7928" gradientUnits="userSpaceOnUse">
<stop stop-color="#FC5555"/>
<stop offset="1" stop-color="#C800CC"/>
</linearGradient>
</defs>
</svg>
