<svg width="17" height="14" viewBox="0 0 17 14" fill="none" xmlns="http://www.w3.org/2000/svg">
<path d="M8.5 14C8.25798 14 8.02465 13.9188 7.84281 13.7714C7.15605 13.2156 6.49393 12.6932 5.90977 12.2324L5.90678 12.23C4.1941 10.879 2.71513 9.71231 1.6861 8.56301C0.535789 7.27817 0 6.05996 0 4.72914C0 3.43613 0.478981 2.24325 1.34862 1.37008C2.22863 0.486588 3.43613 0 4.74908 0C5.73039 0 6.62908 0.287175 7.42012 0.85348C7.81934 1.13933 8.1812 1.48918 8.5 1.89725C8.81893 1.48918 9.18066 1.13933 9.58001 0.85348C10.371 0.287175 11.2697 0 12.251 0C13.5639 0 14.7715 0.486588 15.6515 1.37008C16.5211 2.24325 17 3.43613 17 4.72914C17 6.05996 16.4643 7.27817 15.314 8.56289C14.285 9.71231 12.8062 10.8789 11.0937 12.2298C10.5085 12.6913 9.84538 13.2145 9.15706 13.7717C8.97535 13.9188 8.74189 14 8.5 14ZM4.74908 0.921792C3.71758 0.921792 2.77 1.30285 2.08064 1.99485C1.38104 2.6973 0.995705 3.66832 0.995705 4.72914C0.995705 5.84842 1.44511 6.84945 2.45275 7.97486C3.42667 9.06269 4.87528 10.2054 6.55256 11.5285L6.55567 11.5309C7.14204 11.9935 7.80676 12.5179 8.49857 13.0778C9.19454 12.5168 9.86029 11.9916 10.4478 11.5283C12.125 10.2051 13.5735 9.06269 14.5474 7.97486C15.5549 6.84945 16.0043 5.84842 16.0043 4.72914C16.0043 3.66832 15.619 2.6973 14.9194 1.99485C14.2301 1.30285 13.2824 0.921792 12.251 0.921792C11.4954 0.921792 10.8017 1.14414 10.1891 1.58258C9.64317 1.97348 9.26289 2.46764 9.03994 2.8134C8.92529 2.9912 8.72347 3.09733 8.5 3.09733C8.27653 3.09733 8.07471 2.9912 7.96006 2.8134C7.73724 2.46764 7.35696 1.97348 6.81092 1.58258C6.19835 1.14414 5.50459 0.921792 4.74908 0.921792Z" fill="#050C42"/>
</svg>
