<svg xmlns="http://www.w3.org/2000/svg" width="28" height="24" viewBox="0 0 28 24"><g><g><path fill="#050c42" d="M14 2.938C14.856 2.066 17.066 0 20.5 0 24.637 0 28 3.402 28 7.5c0 2.856-2.469 5.031-2.469 5.031L14.72 23.375l-.719.719-.719-.719L2.47 12.531s-.617-.574-1.219-1.469C.648 10.168 0 8.93 0 7.5 0 3.402 3.363 0 7.5 0c3.434 0 5.644 2.066 6.5 2.938zM2 7.5c0 .773.422 1.715.906 2.438a7.9 7.9 0 0 0 .969 1.187L14 21.25l10.125-10.125S26 9.043 26 7.5C26 4.496 23.543 2 20.5 2c-2.988 0-5.75 2.906-5.75 2.906L14 5.75l-.75-.844S10.488 2 7.5 2C4.457 2 2 4.496 2 7.5z"/></g></g></svg>