<svg xmlns="http://www.w3.org/2000/svg" width="17" height="14" viewBox="0 0 17 14"><g><g><path fill="#fff" d="M8.5 14c-.242 0-.475-.081-.657-.229a195.023 195.023 0 0 0-1.933-1.539l-.003-.002c-1.713-1.351-3.192-2.518-4.22-3.667C.535 7.278 0 6.06 0 4.729 0 3.436.479 2.243 1.349 1.37 2.229.487 3.436 0 4.749 0A4.5 4.5 0 0 1 7.42.853c.4.286.761.636 1.08 1.044.319-.408.68-.758 1.08-1.044A4.5 4.5 0 0 1 12.251 0c1.313 0 2.52.487 3.4 1.37.87.873 1.349 2.066 1.349 3.36 0 1.33-.536 2.548-1.686 3.833-1.029 1.15-2.508 2.316-4.22 3.667-.585.461-1.249.984-1.937 1.542A1.046 1.046 0 0 1 8.5 14zM4.75.922c-1.032 0-1.98.38-2.67 1.073C1.382 2.697.997 3.668.997 4.729c0 1.12.45 2.12 1.457 3.246.974 1.088 2.422 2.23 4.1 3.554l.003.002c.586.462 1.25.987 1.943 1.547a229.51 229.51 0 0 1 1.949-1.55c1.677-1.323 3.125-2.465 4.1-3.553 1.007-1.126 1.456-2.127 1.456-3.246 0-1.06-.385-2.032-1.085-2.734-.689-.692-1.637-1.073-2.668-1.073-.756 0-1.45.222-2.062.66-.546.391-.926.886-1.15 1.231a.635.635 0 0 1-.539.284.635.635 0 0 1-.54-.284 4.581 4.581 0 0 0-1.15-1.23A3.475 3.475 0 0 0 4.75.922z"/></g></g></svg>