<svg width="54" height="53" viewBox="0 0 54 53" fill="none" xmlns="http://www.w3.org/2000/svg">
<g clip-path="url(#clip0)">
<path fill-rule="evenodd" clip-rule="evenodd" d="M52.2273 29.2912C53.0039 29.2912 53.6391 29.9142 53.6391 30.6754V47.2886C53.6391 48.0499 53.0039 48.6729 52.2273 48.6729C51.4511 48.6729 50.8159 48.0499 50.8159 47.2886V30.6754C50.8159 29.9142 51.4511 29.2912 52.2273 29.2912ZM52.2273 23.771C53.0069 23.771 53.6391 24.3906 53.6391 25.1552C53.6391 25.9199 53.0069 26.5395 52.2273 26.5395C51.4477 26.5395 50.8159 25.9199 50.8159 25.1552C50.8159 24.3906 51.4477 23.771 52.2273 23.771Z" fill="#13B17C"/>
<path fill-rule="evenodd" clip-rule="evenodd" d="M23.9681 45.8993C24.9207 45.8993 25.8748 45.8516 26.8194 45.7297C27.7001 45.6156 28.2312 46.3609 28.2312 47.114C28.2312 47.867 27.6298 48.3931 26.8893 48.4967C25.9284 48.6313 24.9659 48.6671 23.9966 48.6682H23.9864C10.7414 48.6682 0 38.1218 0 25.1334C0 12.1354 10.7437 1.59863 23.9966 1.59863C37.2495 1.59863 47.9929 12.1354 47.9929 25.1334V25.1357C47.9929 25.8969 47.3577 26.5203 46.5815 26.5203H23.9962C23.22 26.5203 22.5849 25.8973 22.5849 25.1357C22.5849 24.3744 23.22 23.7514 23.9962 23.7514H30.9125C30.258 20.5926 27.4105 18.2152 23.9966 18.2152C20.0985 18.2152 16.9389 21.3143 16.9389 25.1375C16.9389 28.9603 20.0985 32.0595 23.9966 32.0595C24.4942 32.0595 24.9743 32.011 25.408 31.948C26.1793 31.8354 26.8198 32.5788 26.8198 33.3323C26.8198 34.0857 26.2306 34.614 25.4757 34.715C25.0165 34.7765 24.3311 34.8291 23.87 34.8228C18.4461 34.7501 14.1158 30.465 14.1158 25.1334C14.1158 19.8022 18.5396 15.4426 23.9966 15.4426C28.9751 15.4426 33.0929 19.054 33.7767 23.7514H38.0421C37.3351 16.7545 31.3166 11.2895 23.9966 11.2895C16.2007 11.2895 9.88085 17.4878 9.88085 25.1334C9.88085 32.7794 16.2007 38.9774 23.9966 38.9774V38.9818C24.7763 38.9818 25.408 39.6018 25.408 40.3661C25.408 41.1307 24.7763 41.7507 23.9966 41.7507C23.9522 41.7507 23.9084 41.7485 23.8651 41.7447C14.5708 41.6754 7.0577 34.2654 7.0577 25.1334C7.0577 15.9585 14.6415 8.52061 23.9966 8.52061C32.8766 8.52061 40.1601 15.223 40.8763 23.7514H45.1218C44.3966 12.9272 35.2166 4.3675 23.9966 4.3675C12.303 4.3675 2.82315 13.6646 2.82315 25.1334C2.82315 36.5929 12.2878 45.8841 23.9681 45.8993Z" fill="#13B17C"/>
<path fill-rule="evenodd" clip-rule="evenodd" d="M38.1116 45.9048H38.1119C40.0494 45.9048 41.9371 45.3034 43.5047 44.1865C45.251 42.9014 46.8429 45.1454 45.3323 46.3041L45.3088 46.322H45.3084C43.2318 47.8483 40.707 48.6737 38.1119 48.6737H38.1116C32.6542 48.6737 28.2307 44.3349 28.2307 38.9828C28.2307 33.6308 32.6542 29.292 38.1116 29.292C43.5686 29.292 47.9924 33.6308 47.9924 38.9828H47.992C47.992 39.7445 47.3569 40.3674 46.5807 40.3674H31.1949C31.8491 43.527 34.6969 45.9048 38.1116 45.9048ZM31.1949 37.5986C31.8491 34.439 34.6969 32.0609 38.1116 32.0609C41.5262 32.0609 44.374 34.439 45.0279 37.5986H31.1949Z" fill="#13B17C"/>
</g>
<defs>
<clipPath id="clip0">
<rect width="53.6388" height="52.6073" fill="white"/>
</clipPath>
</defs>
</svg>
