<svg xmlns="http://www.w3.org/2000/svg" width="190" height="48" viewBox="0 0 190 48"><g><g><g><path fill="#13b17c" d="M73.072 16.839h-4.461v3.096h5.236v1.913h-7.56V10.29h7.544v1.93h-5.22v2.753h4.461zm14.18 7.85h-2.146v-2.841h-6.8v2.834h-2.2l-.123-4.747h.852c.46-.392.813-.966 1.06-1.723.254-.762.424-1.704.512-2.826l.325-5.096h7.389v9.645h1.317zm-3.455-4.754v-7.716H80.94l-.193 3.04c-.155 2.038-.57 3.596-1.247 4.676zM97.01 10.29h2.33v11.558h-2.33v-7.676l-4.516 7.676H90.17V10.29h2.323v7.692zm15.109 11.558h-2.324v-4.954h-4.53v4.954h-2.324V10.29h2.323v4.684h4.531V10.29h2.324zm5.985-7.39h1.812c1.327 0 2.378.33 3.152.992.78.656 1.17 1.542 1.17 2.659 0 1.122-.387 2.024-1.162 2.707-.77.677-1.794 1.021-3.075 1.032h-4.236V10.29h2.339zm9.426 7.39h-2.324V10.29h2.324zm-9.426-5.47v3.557h1.851c.594 0 1.066-.167 1.417-.5.357-.334.535-.781.535-1.342 0-.524-.17-.937-.511-1.238-.336-.307-.798-.466-1.387-.477zm19.818-6.088h2.331v11.558h-2.331v-7.676l-4.515 7.676h-2.324V10.29h2.324v7.692zm.449-3.04c0 .704-.248 1.273-.744 1.707-.49.434-1.135.65-1.936.65-.8 0-1.448-.214-1.944-.642-.49-.43-.736-1-.736-1.715h1.588c0 .333.096.593.287.778.196.18.464.27.805.27.336 0 .6-.09.79-.27.191-.185.287-.445.287-.778zM73.049 29.256h2.331v11.558H73.05v-7.676l-4.516 7.676H66.21V29.256h2.324v7.692zm15.109 11.558h-2.324V35.86h-4.53v4.954H78.98V29.256h2.323v4.684h4.531v-4.684h2.324zm10.245-10.526h.14c.882 0 1.68.201 2.392.603a4.156 4.156 0 0 1 1.673 1.7c.398.735.597 1.57.597 2.508 0 1.386-.434 2.519-1.302 3.397-.862.878-2.029 1.318-3.5 1.318v1.476h-2.239v-1.476h-.147c-.893 0-1.698-.196-2.416-.588a4.208 4.208 0 0 1-1.673-1.667c-.392-.714-.589-1.53-.589-2.445 0-.926.197-1.754.589-2.484a4.25 4.25 0 0 1 1.65-1.707c.707-.413 1.497-.624 2.37-.635h.217V28.78h2.238zm-2.386 1.977c-.769 0-1.376.248-1.82.746-.439.497-.658 1.198-.658 2.103 0 .847.22 1.514.658 2 .44.482 1.056.723 1.851.723h.117v-5.572zm2.386 0v5.572h.155c.759 0 1.355-.243 1.789-.73.439-.492.658-1.162.658-2.008 0-.884-.214-1.577-.643-2.08-.428-.503-1.043-.754-1.843-.754zm17.177 3.032c0 1.138-.197 2.135-.589 2.993-.392.857-.955 1.518-1.688 1.984-.728.466-1.565.698-2.51.698-.934 0-1.768-.23-2.501-.69-.734-.46-1.302-1.117-1.704-1.969-.403-.857-.607-1.841-.612-2.953v-.571c0-1.138.199-2.138.596-3 .403-.868.968-1.533 1.696-1.993.733-.466 1.57-.699 2.51-.699.94 0 1.773.233 2.501.7.734.46 1.299 1.124 1.696 1.991.403.863.605 1.86.605 2.993zm-2.355-.524c0-1.212-.212-2.133-.635-2.762-.423-.63-1.027-.945-1.812-.945-.78 0-1.382.312-1.805.937-.423.619-.637 1.53-.643 2.73v.564c0 1.18.212 2.096.635 2.746.424.651 1.033.977 1.828.977.78 0 1.379-.312 1.797-.937.418-.63.63-1.545.635-2.746zm7.953 1.969v4.072h-2.324V29.256h4.4c.846 0 1.59.159 2.23.477.645.317 1.141.77 1.487 1.357.346.582.519 1.246.519 1.992 0 1.133-.38 2.027-1.139 2.683-.753.651-1.8.977-3.136.977zm0-1.93h2.075c.615 0 1.082-.147 1.402-.444.325-.296.488-.72.488-1.27 0-.566-.163-1.024-.488-1.373-.325-.35-.774-.53-1.347-.54h-2.13zm12.537-5.556l2.897 8.383 2.881-8.383h3.052v11.558h-2.332v-3.16l.233-5.453-3.044 8.613h-1.596l-3.036-8.605.233 5.445v3.16h-2.324V29.256zm18.95 9.176h-4.073l-.775 2.382h-2.47l4.197-11.558h2.154l4.22 11.558h-2.47zm-3.446-1.928h2.82l-1.418-4.327zm16.898-5.319h-3.454v9.629h-2.324v-9.629h-3.407v-1.929h9.185zm11.965 4.112c0 1.138-.197 2.135-.589 2.993-.392.857-.955 1.518-1.688 1.984-.728.466-1.565.698-2.51.698-.934 0-1.768-.23-2.501-.69-.734-.46-1.302-1.117-1.704-1.969-.403-.857-.607-1.841-.612-2.953v-.571c0-1.138.199-2.138.596-3 .403-.868.968-1.533 1.696-1.993.734-.466 1.57-.699 2.51-.699.939 0 1.773.233 2.501.7.734.46 1.299 1.124 1.697 1.991.402.863.604 1.86.604 2.993zm-2.355-.524c0-1.212-.212-2.133-.635-2.762-.423-.63-1.027-.945-1.812-.945-.78 0-1.381.312-1.805.937-.423.619-.638 1.53-.643 2.73v.564c0 1.18.212 2.096.635 2.746.424.651 1.033.977 1.828.977.78 0 1.379-.312 1.797-.937.418-.63.63-1.545.635-2.746zm7.953 1.969v4.072h-2.324V29.256h4.399c.847 0 1.591.159 2.231.477.645.317 1.141.77 1.487 1.357.346.582.519 1.246.519 1.992 0 1.133-.38 2.027-1.139 2.683-.753.651-1.799.977-3.136.977zm0-1.93h2.075c.615 0 1.082-.147 1.402-.444.326-.296.488-.72.488-1.27 0-.566-.162-1.024-.488-1.373-.325-.35-.774-.53-1.347-.54h-2.13z"/></g><g><g/><g><g><path fill="#13b17c" d="M52.231 28.29c.777 0 1.412.623 1.412 1.384v16.614c0 .76-.635 1.384-1.412 1.384-.776 0-1.411-.623-1.411-1.384V29.674c0-.76.635-1.384 1.411-1.384zm0-5.52c.78 0 1.412.62 1.412 1.384 0 .765-.632 1.384-1.412 1.384-.78 0-1.411-.62-1.411-1.384 0-.764.632-1.384 1.411-1.384z"/></g><g><path fill="#13b17c" d="M23.968 44.9c.953 0 1.907-.047 2.851-.169.881-.114 1.412.631 1.412 1.384 0 .753-.601 1.28-1.342 1.383-.96.135-1.923.17-2.892.172h-.01C10.74 47.67 0 37.123 0 24.135 0 11.137 10.744.6 23.997.6s23.996 10.537 23.996 23.535v.002c0 .761-.635 1.385-1.411 1.385H23.996c-.776 0-1.411-.623-1.411-1.385 0-.761.635-1.384 1.411-1.384h6.917c-.655-3.159-3.502-5.536-6.916-5.536-3.898 0-7.058 3.099-7.058 6.922 0 3.823 3.16 6.922 7.058 6.922.497 0 .977-.049 1.411-.112.771-.112 1.412.631 1.412 1.385 0 .753-.59 1.281-1.344 1.382-.46.062-1.145.115-1.606.108-5.424-.073-9.754-4.358-9.754-9.69 0-5.33 4.424-9.69 9.88-9.69 4.98 0 9.097 3.611 9.78 8.309h4.266c-.707-6.997-6.725-12.462-14.045-12.462-7.796 0-14.116 6.198-14.116 13.844 0 7.646 6.32 13.844 14.116 13.844v.004c.78 0 1.411.62 1.411 1.385 0 .764-.632 1.384-1.411 1.384-.045 0-.089-.002-.132-.006-9.294-.07-16.807-7.48-16.807-16.611 0-9.175 7.584-16.613 16.939-16.613 8.88 0 16.163 6.702 16.88 15.23h4.245C44.397 11.93 35.217 3.37 23.997 3.37c-11.694 0-21.174 9.297-21.174 20.766 0 11.46 9.465 20.75 21.145 20.766z"/></g><g><path fill="#13b17c" d="M38.111 44.903a9.296 9.296 0 0 0 5.393-1.718c1.746-1.286 3.338.958 1.828 2.117l-.024.018a12.156 12.156 0 0 1-7.197 2.352c-5.458 0-9.881-4.34-9.881-9.691 0-5.352 4.423-9.691 9.88-9.691 5.458 0 9.882 4.339 9.882 9.69 0 .763-.636 1.386-1.412 1.386H31.194c.654 3.159 3.502 5.537 6.917 5.537zm-6.917-8.306h13.833c-.654-3.16-3.502-5.538-6.916-5.538-3.415 0-6.263 2.378-6.917 5.538z"/></g></g></g></g></g></svg>