<svg width="57" height="41" viewBox="0 0 57 41" fill="none" xmlns="http://www.w3.org/2000/svg">
<circle cx="20" cy="21" r="20" fill="url(#paint0_linear)"/>
<circle cx="42" cy="15" r="15" fill="url(#paint1_linear)"/>
<path d="M14.48 14.64H11.32V11.86H9.83V19H11.32V16.01H14.48V19H15.97V11.86H14.48V14.64ZM18.193 12.77C17.583 13.46 17.283 14.34 17.283 15.43C17.283 16.52 17.583 17.41 18.193 18.1C18.803 18.79 19.663 19.13 20.763 19.13C21.863 19.13 22.713 18.79 23.323 18.1C23.933 17.41 24.243 16.52 24.243 15.43C24.243 14.34 23.933 13.46 23.323 12.77C22.713 12.08 21.863 11.73 20.763 11.73C19.663 11.73 18.803 12.08 18.193 12.77ZM19.303 17.14C18.973 16.7 18.813 16.13 18.813 15.43C18.813 14.73 18.973 14.16 19.303 13.72C19.633 13.28 20.123 13.06 20.763 13.06C21.403 13.06 21.883 13.28 22.213 13.72C22.543 14.16 22.713 14.73 22.713 15.43C22.713 16.13 22.543 16.7 22.213 17.14C21.883 17.58 21.403 17.8 20.763 17.8C20.123 17.8 19.633 17.58 19.303 17.14ZM30.5324 15.16C30.9824 14.92 31.2624 14.39 31.2624 13.75C31.2624 13.21 31.0624 12.76 30.6524 12.4C30.2424 12.04 29.6624 11.86 28.9124 11.86H25.5624V19H29.0024C30.6324 19 31.4624 18.18 31.4624 16.93C31.4624 16.25 31.0524 15.65 30.5324 15.42V15.16ZM27.0524 14.69V13.1H28.7224C29.3924 13.1 29.7324 13.36 29.7324 13.89C29.7324 14.42 29.4024 14.69 28.7324 14.69H27.0524ZM27.0524 17.73V15.94H28.8024C29.5524 15.94 29.9324 16.24 29.9324 16.85C29.9324 17.44 29.5524 17.73 28.7824 17.73H27.0524ZM39.2188 19H40.7088V11.86H39.2188V19ZM34.2888 17.69V15.59H35.5488C36.5088 15.59 36.8988 15.95 36.8988 16.64C36.8988 17.35 36.5088 17.69 35.5488 17.69H34.2888ZM35.7788 19C37.4488 19 38.4288 18.11 38.4288 16.63C38.4288 15.16 37.4488 14.28 35.7788 14.28H34.2888V11.86H32.7988V19H35.7788ZM42.3593 19H44.2993L46.9293 13.91H47.1893V19H48.5893V11.86H46.5793L44.0093 16.84H43.7493V11.86H42.3593V19ZM46.2593 9.96C46.2093 10.33 45.9393 10.58 45.4693 10.58C44.9993 10.58 44.7193 10.32 44.6793 9.96H43.5793C43.6593 10.92 44.3493 11.5 45.4693 11.5C46.5893 11.5 47.2793 10.92 47.3593 9.96H46.2593ZM9.21 31H9.47C10.52 31 11.18 30.8 11.6 29.92C11.84 29.33 11.99 28.44 11.99 27.12V25.19H14.31V31H15.81V23.86H10.58V27.02C10.58 28.53 10.4 29.19 10.11 29.39C9.97 29.49 9.75 29.54 9.46 29.54H9.21V31ZM18.027 24.77C17.417 25.46 17.117 26.34 17.117 27.43C17.117 28.52 17.417 29.41 18.027 30.1C18.637 30.79 19.497 31.13 20.597 31.13C21.697 31.13 22.547 30.79 23.157 30.1C23.767 29.41 24.077 28.52 24.077 27.43C24.077 26.34 23.767 25.46 23.157 24.77C22.547 24.08 21.697 23.73 20.597 23.73C19.497 23.73 18.637 24.08 18.027 24.77ZM19.137 29.14C18.807 28.7 18.647 28.13 18.647 27.43C18.647 26.73 18.807 26.16 19.137 25.72C19.467 25.28 19.957 25.06 20.597 25.06C21.237 25.06 21.717 25.28 22.047 25.72C22.377 26.16 22.547 26.73 22.547 27.43C22.547 28.13 22.377 28.7 22.047 29.14C21.717 29.58 21.237 29.8 20.597 29.8C19.957 29.8 19.467 29.58 19.137 29.14ZM24.6678 23.86V25.17H26.8878V31H28.3778V25.17H30.5978V23.86H24.6678Z" fill="white"/>
<defs>
<linearGradient id="paint0_linear" x1="0.756115" y1="4.6565" x2="40.8311" y2="5.59734" gradientUnits="userSpaceOnUse">
<stop stop-color="#13B17C"/>
<stop offset="1" stop-color="#0099CC"/>
</linearGradient>
<linearGradient id="paint1_linear" x1="27.5671" y1="2.74238" x2="57.6234" y2="3.448" gradientUnits="userSpaceOnUse">
<stop stop-color="#13B17C"/>
<stop offset="1" stop-color="#0099CC"/>
</linearGradient>
</defs>
</svg>
