<svg width="24" height="24" viewBox="0 0 24 24" fill="none" xmlns="http://www.w3.org/2000/svg">
<path d="M19.4121 0.720703C18.4307 0.720703 17.4492 1.10156 16.6875 1.86328L1.86328 16.6875L1.80469 16.9805L0.779297 22.1367L0.486328 23.5137L1.86328 23.2207L7.01953 22.1953L7.3125 22.1367L22.1367 7.3125C23.6602 5.78906 23.6602 3.38672 22.1367 1.86328C21.375 1.10156 20.3936 0.720703 19.4121 0.720703ZM19.4121 2.50781C19.8845 2.50781 20.3606 2.72388 20.8184 3.18164C21.7302 4.09351 21.7302 5.08228 20.8184 5.99414L20.1445 6.63867L17.3613 3.85547L18.0059 3.18164C18.4636 2.72388 18.9397 2.50781 19.4121 2.50781ZM16.043 5.17383L18.8262 7.95703L7.48828 19.2949C6.87305 18.0938 5.90625 17.127 4.70508 16.5117L16.043 5.17383ZM3.50391 18.0352C4.62817 18.4893 5.51074 19.3718 5.96484 20.4961L2.88867 21.1113L3.50391 18.0352Z" fill="white"/>
</svg>
