<svg xmlns="http://www.w3.org/2000/svg" width="26" height="26" viewBox="0 0 26 26"><g><g><path fill="#050c42" d="M26 13c0 7.168-5.832 13-13 13S0 20.168 0 13 5.832 0 13 0s13 5.832 13 13zM2 13c0 6.086 4.914 11 11 11s11-4.914 11-11S19.086 2 13 2 2 6.914 2 13zm16-3c0 1.516-.707 2.863-1.781 3.781A7.005 7.005 0 0 1 20 20h-2c0-2.773-2.227-5-5-5s-5 2.227-5 5H6c0-2.7 1.531-5.05 3.781-6.219C8.707 12.863 8 11.516 8 10c0-2.75 2.25-5 5-5s5 2.25 5 5zm-8 0c0 1.668 1.332 3 3 3s3-1.332 3-3-1.332-3-3-3-3 1.332-3 3z"/></g></g></svg>