<svg xmlns="http://www.w3.org/2000/svg" width="27" height="26" viewBox="0 0 27 26"><g><g><g><path fill="#050c42" d="M8.806 2.092A7.985 7.985 0 0 0 2 10.004c0 4.43 3.57 8 8 8a7.983 7.983 0 0 0 6.777-3.738l1.437 1.437c-.147.21-.302.415-.464.613l7.969 7.97-1.438 1.437-7.968-7.97A9.923 9.923 0 0 1 10 20.004c-5.512 0-10-4.487-10-10C0 4.684 4.182.318 9.429.02a7.689 7.689 0 0 0-.623 2.072z"/></g><g><path fill="#050c42" d="M13.373 7.112a3.178 3.178 0 0 1-.202-.212 5.41 5.41 0 0 1-.46-.59C12.388 5.833 12 5.113 12 4.25 12 1.927 13.904 0 16.25 0c1.547 0 2.644.748 3.25 1.28C20.106.748 21.203 0 22.75 0 25.096 0 27 1.927 27 4.25c0 .855-.367 1.583-.705 2.076a5.1 5.1 0 0 1-.677.795l-.007.007-5.398 5.412-.713.714-.713-.713-5.402-5.417zm5.385-3.819l-.005-.005a4.858 4.858 0 0 0-.2-.188 5.866 5.866 0 0 0-.587-.46c-.502-.344-1.12-.64-1.716-.64A2.26 2.26 0 0 0 14 4.25c0 .24.147.61.368.94a3.724 3.724 0 0 0 .411.507l.005.005.007.007 4.709 4.709 4.698-4.698.025-.029a5.387 5.387 0 0 0 .39-.52c.108-.163.208-.339.28-.508A1.12 1.12 0 0 0 25 4.25 2.26 2.26 0 0 0 22.75 2c-.597 0-1.214.296-1.716.64a5.866 5.866 0 0 0-.787.648l-.005.005-.742.835z"/></g></g></g></svg>