<svg display="none" xmlns="http://www.w3.org/2000/svg">
        <symbol id="profile" viewBox="0 0 26 26">
            <g>
                <path fill="#050c42" d="M26 13c0 7.168-5.832 13-13 13S0 20.168 0 13 5.832 0 13 0s13 5.832 13 13zM2 13c0 6.086 4.914 11 11 11s11-4.914 11-11S19.086 2 13 2 2 6.914 2 13zm16-3c0 1.516-.707 2.863-1.781 3.781A7.005 7.005 0 0 1 20 20h-2c0-2.773-2.227-5-5-5s-5 2.227-5 5H6c0-2.7 1.531-5.05 3.781-6.219C8.707 12.863 8 11.516 8 10c0-2.75 2.25-5 5-5s5 2.25 5 5zm-8 0c0 1.668 1.332 3 3 3s3-1.332 3-3-1.332-3-3-3-3 1.332-3 3z"/>
            </g>
        </symbol> 

        <symbol id="heart" viewBox="0 0 28 24">
            <g>
                <path fill="#050c42" d="M14 2.938C14.856 2.066 17.066 0 20.5 0 24.637 0 28 3.402 28 7.5c0 2.856-2.469 5.031-2.469 5.031L14.72 23.375l-.719.719-.719-.719L2.47 12.531s-.617-.574-1.219-1.469C.648 10.168 0 8.93 0 7.5 0 3.402 3.363 0 7.5 0c3.434 0 5.644 2.066 6.5 2.938zM2 7.5c0 .773.422 1.715.906 2.438a7.9 7.9 0 0 0 .969 1.187L14 21.25l10.125-10.125S26 9.043 26 7.5C26 4.496 23.543 2 20.5 2c-2.988 0-5.75 2.906-5.75 2.906L14 5.75l-.75-.844S10.488 2 7.5 2C4.457 2 2 4.496 2 7.5z"/>
            </g>
        </symbol>

        <symbol id="search-heart" viewBox="0 0 27 26">
           <g>
                <path fill="#050c42" d="M8.806 2.092A7.985 7.985 0 0 0 2 10.004c0 4.43 3.57 8 8 8a7.983 7.983 0 0 0 6.777-3.738l1.437 1.437c-.147.21-.302.415-.464.613l7.969 7.97-1.438 1.437-7.968-7.97A9.923 9.923 0 0 1 10 20.004c-5.512 0-10-4.487-10-10C0 4.684 4.182.318 9.429.02a7.689 7.689 0 0 0-.623 2.072z"/></g><g><path fill="#050c42" d="M13.373 7.112a3.178 3.178 0 0 1-.202-.212 5.41 5.41 0 0 1-.46-.59C12.388 5.833 12 5.113 12 4.25 12 1.927 13.904 0 16.25 0c1.547 0 2.644.748 3.25 1.28C20.106.748 21.203 0 22.75 0 25.096 0 27 1.927 27 4.25c0 .855-.367 1.583-.705 2.076a5.1 5.1 0 0 1-.677.795l-.007.007-5.398 5.412-.713.714-.713-.713-5.402-5.417zm5.385-3.819l-.005-.005a4.858 4.858 0 0 0-.2-.188 5.866 5.866 0 0 0-.587-.46c-.502-.344-1.12-.64-1.716-.64A2.26 2.26 0 0 0 14 4.25c0 .24.147.61.368.94a3.724 3.724 0 0 0 .411.507l.005.005.007.007 4.709 4.709 4.698-4.698.025-.029a5.387 5.387 0 0 0 .39-.52c.108-.163.208-.339.28-.508A1.12 1.12 0 0 0 25 4.25 2.26 2.26 0 0 0 22.75 2c-.597 0-1.214.296-1.716.64a5.866 5.866 0 0 0-.787.648l-.005.005-.742.835z"/>
            </g>
        </symbol>

        <symbol id="bell" viewBox="0 0 20 26">
           <g>
                <path fill="#050c42" d="M12 2c0 .086-.02.168-.031.25C15.489 3.172 18 6.523 18 10.281V19c0 .566.434 1 1 1h1v2h-7.188c.114.316.188.648.188 1 0 1.645-1.355 3-3 3s-3-1.355-3-3c0-.352.074-.684.188-1H0v-2h1c.566 0 1-.434 1-1v-9c0-3.727 2.574-6.867 6.031-7.75C8.02 2.168 8 2.086 8 2a1.999 1.999 0 1 1 4 0zm-8 8v9c0 .352-.074.684-.188 1h12.376A2.95 2.95 0 0 1 16 19v-8.719c0-3.32-2.547-6.183-5.813-6.281H10c-.148 0-.293-.012-.438 0A6.005 6.005 0 0 0 4 10zm5 13c0 .563.438 1 1 1 .563 0 1-.438 1-1 0-.563-.438-1-1-1-.563 0-1 .438-1 1z"/>
            </g>
        </symbol>

        <symbol id="switch" viewBox="0 0 8 12">
           <g>
               <path d="M0.589966 10.58L5.16997 6L0.589966 1.41L1.99997 0L7.99997 6L1.99997 12L0.589966 10.58Z" fill="#050C42"/>
            </g>
        </symbol>

        <symbol id="right" viewBox="0 0 16 16">
           <g>
              <path d="M4.75 14.11L10.86 8L4.75 1.88L6.63 0L14.63 8L6.63 16L4.75 14.11Z">
            </g>
        </symbol>

        <!-- <symbol id="left" viewBox="0 0 16 16">
           <g>
               <path d="M0.589966 10.58L5.16997 6L0.589966 1.41L1.99997 0L7.99997 6L1.99997 12L0.589966 10.58Z" fill="#050C42"/>
            </g>
        </symbol> -->

        

    </svg>